<svg width="11" height="11" viewBox="0 0 11 11" fill="none" xmlns="http://www.w3.org/2000/svg">
<path id="icon/close" fill-rule="evenodd" clip-rule="evenodd" d="M1.49009 0.857488C1.32135 0.688739 1.04775 0.688739 0.879003 0.857488C0.710254 1.02624 0.710254 1.29983 0.879003 1.46858L5.1286 5.71818L0.879036 9.96774C0.710288 10.1365 0.710288 10.4101 0.879036 10.5788C1.04778 10.7476 1.32138 10.7476 1.49013 10.5788L5.73969 6.32927L9.98926 10.5788C10.158 10.7476 10.4316 10.7476 10.6004 10.5788C10.7691 10.4101 10.7691 10.1365 10.6004 9.96774L6.35078 5.71818L10.6004 1.46858C10.7691 1.29983 10.7691 1.02624 10.6004 0.857488C10.4316 0.688739 10.158 0.688739 9.98929 0.857488L5.73969 5.10709L1.49009 0.857488Z" fill="#8C8D8F"/>
</svg>
