<svg width="217" height="64" viewBox="0 0 217 64" fill="none" xmlns="http://www.w3.org/2000/svg">
<g clip-path="url(#clip0_407_1850)">
<g clip-path="url(#clip1_407_1850)">
<path d="M64.0966 32.0014C63.9562 32.0046 63.8165 31.9792 63.6861 31.9266C63.5557 31.8741 63.4372 31.7955 63.3378 31.6957C63.2385 31.5959 63.1603 31.4768 63.108 31.3458C63.0557 31.2148 63.0304 31.0744 63.0336 30.9333V18.192C63.0278 18.0502 63.0513 17.9087 63.1027 17.7765C63.1541 17.6443 63.2322 17.5242 63.3321 17.4238C63.432 17.3235 63.5515 17.245 63.6831 17.1934C63.8147 17.1418 63.9555 17.1181 64.0966 17.1239C64.2373 17.1159 64.378 17.1383 64.5093 17.1895C64.6406 17.2406 64.7595 17.3195 64.858 17.4207C64.9565 17.5218 65.0323 17.643 65.0803 17.7761C65.1283 17.9091 65.1474 18.0509 65.1364 18.192V30.9333C65.1428 31.0733 65.1205 31.2131 65.0709 31.3441C65.0212 31.4751 64.9452 31.5943 64.8477 31.6945C64.7502 31.7947 64.6332 31.8737 64.504 31.9265C64.3747 31.9793 64.2361 32.0048 64.0966 32.0014Z" fill="#D2D3D9"/>
<path d="M81.8292 32.0011C81.6785 32.009 81.5283 31.9793 81.3917 31.9148C81.2552 31.8503 81.1366 31.753 81.0465 31.6314L72.7288 20.9853V31.021C72.7288 31.2841 72.6248 31.5364 72.4396 31.7224C72.2545 31.9084 72.0034 32.0129 71.7416 32.0129C71.4798 32.0129 71.2287 31.9084 71.0436 31.7224C70.8585 31.5364 70.7545 31.2841 70.7545 31.021V18.1096C70.7436 17.9735 70.7625 17.8366 70.81 17.7087C70.8575 17.5808 70.9323 17.4649 71.0292 17.3692C71.1261 17.2735 71.2428 17.2003 71.3709 17.1548C71.4991 17.1094 71.6356 17.0927 71.7708 17.106C71.9247 17.1085 72.0759 17.1475 72.212 17.2199C72.348 17.2924 72.465 17.3961 72.5535 17.5227L80.8479 28.1218V18.1272C80.8403 17.9934 80.8609 17.8595 80.9084 17.7343C80.9559 17.609 81.0292 17.4953 81.1235 17.4005C81.2178 17.3058 81.331 17.2321 81.4556 17.1844C81.5803 17.1367 81.7136 17.116 81.8467 17.1236C81.9787 17.1165 82.1106 17.1379 82.2337 17.1861C82.3569 17.2344 82.4683 17.3085 82.5606 17.4035C82.653 17.4985 82.7241 17.6122 82.7692 17.737C82.8143 17.8618 82.8323 17.9948 82.8222 18.1272V31.0386C82.8248 31.1688 82.8006 31.298 82.7512 31.4184C82.7018 31.5387 82.6281 31.6474 82.5349 31.7378C82.4417 31.8281 82.3308 31.8982 82.2094 31.9435C82.088 31.9888 81.9585 32.0084 81.8292 32.0011Z" fill="#D2D3D9"/>
<path d="M99.4342 32.0011C99.2835 32.009 99.1333 31.9793 98.9967 31.9148C98.8602 31.8503 98.7416 31.753 98.6515 31.6314L90.3396 20.9853V31.021C90.3396 31.2841 90.2356 31.5364 90.0505 31.7224C89.8653 31.9084 89.6143 32.0129 89.3524 32.0129C89.0906 32.0129 88.8395 31.9084 88.6544 31.7224C88.4693 31.5364 88.3653 31.2841 88.3653 31.021V18.1096C88.3544 17.9735 88.3733 17.8366 88.4208 17.7087C88.4683 17.5808 88.5431 17.4649 88.6401 17.3692C88.737 17.2735 88.8536 17.2003 88.9818 17.1548C89.1099 17.1094 89.2464 17.0927 89.3816 17.106C89.5357 17.108 89.687 17.1468 89.8231 17.2193C89.9592 17.2918 90.0762 17.3958 90.1644 17.5227L98.4587 28.1218V18.1272C98.4511 17.9934 98.4717 17.8595 98.5192 17.7343C98.5667 17.609 98.64 17.4953 98.7343 17.4005C98.8287 17.3058 98.9418 17.2321 99.0665 17.1844C99.1911 17.1367 99.3244 17.116 99.4576 17.1236C99.5895 17.1165 99.7215 17.1379 99.8446 17.1861C99.9677 17.2344 100.079 17.3085 100.171 17.4035C100.264 17.4985 100.335 17.6122 100.38 17.737C100.425 17.8618 100.443 17.9948 100.433 18.1272V31.0386C100.436 31.1693 100.411 31.2991 100.362 31.4198C100.312 31.5405 100.238 31.6496 100.144 31.74C100.05 31.8305 99.9384 31.9004 99.8162 31.9453C99.6941 31.9903 99.564 32.0093 99.4342 32.0011Z" fill="#D2D3D9"/>
<path d="M112.547 32.0897C108.137 32.0897 105.211 28.6623 105.211 24.5659C105.211 20.4694 108.131 17.0361 112.547 17.0361C116.963 17.0361 119.884 20.4635 119.884 24.5659C119.884 28.6682 116.952 32.0897 112.547 32.0897ZM112.547 18.9376C109.183 18.9376 107.29 21.5728 107.29 24.5659C107.29 27.559 109.183 30.1882 112.547 30.1882C115.912 30.1882 117.804 27.5531 117.804 24.5659C117.804 21.5786 115.912 18.9376 112.547 18.9376Z" fill="#D2D3D9"/>
<path d="M133.757 17.7339C133.822 17.5476 133.946 17.3886 134.112 17.2821C134.277 17.1757 134.473 17.1281 134.668 17.147C134.799 17.1422 134.929 17.1641 135.051 17.2114C135.172 17.2586 135.283 17.3302 135.377 17.4219C135.47 17.5136 135.544 17.6233 135.594 17.7445C135.644 17.8658 135.669 17.9959 135.667 18.1271C135.659 18.2797 135.621 18.4292 135.556 18.5672L130.065 31.4376C129.987 31.6042 129.863 31.745 129.708 31.8436C129.553 31.9422 129.373 31.9945 129.189 31.9945C129.006 31.9945 128.826 31.9422 128.671 31.8436C128.516 31.745 128.392 31.6042 128.313 31.4376L122.822 18.5672C122.76 18.4281 122.723 18.2792 122.712 18.1271C122.71 17.9959 122.735 17.8658 122.785 17.7445C122.835 17.6233 122.908 17.5136 123.002 17.4219C123.095 17.3302 123.206 17.2586 123.328 17.2114C123.45 17.1641 123.58 17.1422 123.71 17.147C123.906 17.1281 124.102 17.1757 124.267 17.2821C124.432 17.3886 124.557 17.5476 124.622 17.7339L129.207 28.8377L133.757 17.7339Z" fill="#D2D3D9"/>
<path d="M150.416 30.5821C150.481 30.7199 150.517 30.8698 150.521 31.0222C150.528 31.1527 150.507 31.2832 150.46 31.4051C150.414 31.5271 150.342 31.6379 150.25 31.7303C150.158 31.8227 150.048 31.8946 149.927 31.9415C149.805 31.9883 149.675 32.0091 149.546 32.0023C149.348 32.014 149.153 31.9637 148.985 31.8586C148.818 31.7534 148.687 31.5986 148.611 31.4154L147.157 28.2287H140.311L138.856 31.4154C138.78 31.5986 138.65 31.7534 138.482 31.8586C138.315 31.9637 138.119 32.014 137.922 32.0023C137.792 32.0082 137.663 31.9868 137.542 31.9396C137.421 31.8924 137.311 31.8204 137.219 31.7282C137.127 31.636 137.056 31.5256 137.009 31.4041C136.962 31.2825 136.94 31.1525 136.946 31.0222C136.95 30.869 136.988 30.7186 137.057 30.5821L142.787 17.7352C142.868 17.5533 142.999 17.3988 143.164 17.2903C143.33 17.1819 143.524 17.1241 143.722 17.1241C143.92 17.1241 144.114 17.1819 144.279 17.2903C144.445 17.3988 144.576 17.5533 144.657 17.7352L150.416 30.5821ZM143.722 20.1531L141.07 26.3506H146.368L143.722 20.1531Z" fill="#D2D3D9"/>
<path d="M166.946 19.436C167.124 19.6416 167.225 19.9031 167.232 20.1755C167.238 20.2996 167.218 20.4236 167.173 20.5393C167.128 20.6551 167.059 20.7599 166.971 20.8469C166.882 20.934 166.777 21.0012 166.661 21.0443C166.545 21.0874 166.421 21.1053 166.297 21.0969C166.117 21.0892 165.941 21.0396 165.783 20.9521C165.625 20.8645 165.489 20.7413 165.386 20.5922C164.914 20.0567 164.331 19.6312 163.678 19.3454C163.026 19.0596 162.319 18.9202 161.607 18.9371C158.102 18.9371 156.245 21.4842 156.245 24.5654C156.245 27.6465 158.091 30.1877 161.607 30.1877C162.319 30.2046 163.026 30.0653 163.678 29.7795C164.331 29.4936 164.914 29.0681 165.386 28.5327C165.489 28.3835 165.625 28.2604 165.783 28.1728C165.941 28.0852 166.117 28.0356 166.297 28.028C166.421 28.0195 166.545 28.0375 166.661 28.0805C166.777 28.1236 166.882 28.1909 166.971 28.2779C167.059 28.365 167.128 28.4698 167.173 28.5855C167.218 28.7013 167.238 28.8253 167.232 28.9494C167.225 29.2218 167.124 29.4832 166.946 29.6889C166.268 30.4704 165.426 31.091 164.481 31.5061C163.535 31.9212 162.51 32.1203 161.479 32.0892C156.94 32.0892 154.136 28.6442 154.136 24.5654C154.136 20.4865 156.94 17.0356 161.479 17.0356C162.51 17.0045 163.535 17.2037 164.481 17.6187C165.426 18.0338 166.268 18.6545 166.946 19.436Z" fill="#D2D3D9"/>
<path d="M184.247 30.5821C184.314 30.7195 184.351 30.8694 184.358 31.0222C184.364 31.1525 184.342 31.2825 184.295 31.4041C184.248 31.5256 184.177 31.636 184.085 31.7282C183.993 31.8204 183.883 31.8924 183.762 31.9396C183.641 31.9868 183.512 32.0082 183.382 32.0023C183.185 32.014 182.989 31.9637 182.822 31.8586C182.654 31.7534 182.524 31.5986 182.448 31.4154L180.993 28.2287H174.177L172.722 31.4154C172.646 31.5986 172.516 31.7534 172.348 31.8586C172.181 31.9637 171.985 32.014 171.788 32.0023C171.658 32.0091 171.528 31.9883 171.407 31.9415C171.285 31.8946 171.175 31.8227 171.083 31.7303C170.991 31.6379 170.919 31.5271 170.873 31.4051C170.826 31.2832 170.806 31.1527 170.812 31.0222C170.816 30.8698 170.852 30.7199 170.917 30.5821L176.648 17.7352C176.728 17.5533 176.859 17.3988 177.025 17.2903C177.191 17.1819 177.384 17.1241 177.582 17.1241C177.78 17.1241 177.974 17.1819 178.14 17.2903C178.306 17.3988 178.437 17.5533 178.517 17.7352L184.247 30.5821ZM177.582 20.1531L174.948 26.3506H180.246L177.582 20.1531Z" fill="#D2D3D9"/>
<path d="M189.937 32.0009C189.796 32.0041 189.657 31.9787 189.526 31.9261C189.396 31.8736 189.277 31.795 189.178 31.6952C189.079 31.5953 189.001 31.4763 188.948 31.3453C188.896 31.2142 188.871 31.0739 188.874 30.9328V18.391C188.864 18.2483 188.885 18.1052 188.935 17.9713C188.985 17.8374 189.063 17.7158 189.164 17.6146C189.265 17.5135 189.386 17.4351 189.519 17.3848C189.652 17.3345 189.795 17.3134 189.937 17.3229H195.778C199.078 17.3229 200.702 19.0836 200.702 21.5954C200.744 22.4937 200.468 23.3779 199.924 24.092C199.38 24.8061 198.603 25.3041 197.729 25.4982L200.159 30.4985C200.229 30.6411 200.266 30.7973 200.27 30.9562C200.275 31.0932 200.252 31.2298 200.202 31.3575C200.153 31.4853 200.078 31.6016 199.982 31.6993C199.887 31.797 199.772 31.8742 199.646 31.926C199.519 31.9779 199.384 32.0034 199.248 32.0009C199.051 32.0167 198.854 31.9681 198.686 31.8624C198.519 31.7566 198.39 31.5993 198.319 31.414L195.562 25.7388H190.959V30.9328C190.965 31.0712 190.944 31.2096 190.895 31.3394C190.846 31.4691 190.772 31.5876 190.676 31.6875C190.581 31.7875 190.466 31.8668 190.339 31.9207C190.212 31.9745 190.075 32.0018 189.937 32.0009ZM190.959 19.2185V23.9136H196.187C196.506 23.9435 196.827 23.9041 197.129 23.7981C197.432 23.6921 197.708 23.522 197.939 23.2993C198.17 23.0766 198.351 22.8066 198.469 22.5075C198.587 22.2084 198.639 21.8874 198.623 21.5661C198.636 21.2456 198.582 20.9258 198.463 20.6281C198.344 20.3304 198.163 20.0615 197.933 19.8395C197.702 19.6174 197.427 19.4471 197.126 19.3401C196.825 19.233 196.505 19.1916 196.187 19.2185H190.959Z" fill="#D2D3D9"/>
<path d="M215.118 31.8247H206.783C206.644 31.8312 206.505 31.8088 206.374 31.7589C206.244 31.709 206.125 31.6327 206.025 31.5347C205.926 31.4367 205.847 31.3191 205.795 31.1893C205.742 31.0595 205.717 30.9202 205.72 30.7801V18.344C205.721 18.205 205.749 18.0676 205.803 17.9397C205.857 17.8117 205.936 17.6958 206.035 17.5987C206.133 17.5015 206.25 17.425 206.379 17.3736C206.507 17.3222 206.645 17.297 206.783 17.2993H214.791C214.923 17.289 215.055 17.3061 215.18 17.3496C215.305 17.3931 215.419 17.4621 215.516 17.5522C215.613 17.6424 215.691 17.7516 215.744 17.8733C215.797 17.9949 215.824 18.1262 215.824 18.2589C215.824 18.3916 215.797 18.5229 215.744 18.6445C215.691 18.7661 215.613 18.8754 215.516 18.9655C215.419 19.0556 215.305 19.1246 215.18 19.1681C215.055 19.2117 214.923 19.2288 214.791 19.2184H207.782V23.4264H211.748C211.874 23.4264 211.998 23.4513 212.114 23.4998C212.23 23.5482 212.335 23.6192 212.423 23.7087C212.512 23.7981 212.582 23.9043 212.629 24.021C212.677 24.1377 212.701 24.2628 212.7 24.3889C212.703 24.5152 212.68 24.6406 212.633 24.7578C212.586 24.8749 212.515 24.9813 212.427 25.0706C212.338 25.16 212.232 25.2303 212.115 25.2776C211.999 25.3248 211.874 25.3479 211.748 25.3455H207.794V29.9056H215.113C215.242 29.8983 215.372 29.918 215.494 29.9632C215.615 30.0085 215.726 30.0784 215.82 30.1687C215.914 30.259 215.988 30.3676 216.038 30.488C216.088 30.6083 216.113 30.7377 216.111 30.8681C216.109 30.9965 216.082 31.1233 216.03 31.241C215.979 31.3587 215.905 31.4651 215.813 31.554C215.721 31.6429 215.612 31.7126 215.493 31.759C215.373 31.8055 215.246 31.8278 215.118 31.8247Z" fill="#D2D3D9"/>
<path d="M69.615 49.0321C69.4601 49.0321 69.3115 48.9703 69.202 48.8602C69.0925 48.7502 69.0309 48.6009 69.0309 48.4452V45.1763H64.5099V48.4159C64.5099 48.5715 64.4484 48.7208 64.3388 48.8309C64.2293 48.9409 64.0807 49.0028 63.9258 49.0028C63.8462 49.0076 63.7665 48.996 63.6915 48.9686C63.6165 48.9413 63.5479 48.8988 63.4899 48.8438C63.4319 48.7889 63.3857 48.7225 63.3542 48.6489C63.3227 48.5753 63.3065 48.496 63.3066 48.4159V41.0211C63.3066 40.86 63.3703 40.7055 63.4837 40.5916C63.5971 40.4777 63.7509 40.4137 63.9112 40.4137C64.0715 40.4137 64.2253 40.4777 64.3387 40.5916C64.4521 40.7055 64.5158 40.86 64.5158 41.0211V44.0377H69.0368V41.0211C69.0328 40.9416 69.045 40.8622 69.0726 40.7875C69.1001 40.7129 69.1425 40.6447 69.1972 40.587C69.2518 40.5294 69.3176 40.4835 69.3904 40.4522C69.4632 40.4209 69.5417 40.4048 69.6209 40.4049C69.7001 40.4048 69.7785 40.4209 69.8514 40.4522C69.9242 40.4835 69.9899 40.5294 70.0446 40.587C70.0992 40.6447 70.1416 40.7129 70.1692 40.7875C70.1968 40.8622 70.209 40.9416 70.205 41.0211V48.4159C70.209 48.4959 70.1966 48.5759 70.1687 48.6509C70.1408 48.7259 70.0978 48.7944 70.0426 48.8521C69.9873 48.9098 69.9209 48.9556 69.8473 48.9866C69.7738 49.0175 69.6948 49.033 69.615 49.0321Z" fill="#D2D3D9"/>
<path d="M81.0885 48.9104H76.2345C76.0796 48.9104 75.931 48.8486 75.8215 48.7385C75.7119 48.6285 75.6504 48.4792 75.6504 48.3235V41.1166C75.6504 40.9609 75.7119 40.8117 75.8215 40.7016C75.931 40.5915 76.0796 40.5297 76.2345 40.5297H80.9074C80.9951 40.5007 81.0884 40.4931 81.1797 40.5074C81.2709 40.5216 81.3575 40.5575 81.4323 40.6119C81.5071 40.6663 81.568 40.7377 81.61 40.8204C81.652 40.903 81.6739 40.9945 81.6739 41.0872C81.6739 41.18 81.652 41.2715 81.61 41.3541C81.568 41.4368 81.5071 41.5082 81.4323 41.5626C81.3575 41.617 81.2709 41.6529 81.1797 41.6671C81.0884 41.6814 80.9951 41.6738 80.9074 41.6448H76.8537V44.0862H79.1551C79.2281 44.0854 79.3007 44.0993 79.3683 44.1271C79.436 44.1548 79.4975 44.1959 79.5492 44.2478C79.6009 44.2997 79.6417 44.3615 79.6693 44.4295C79.6969 44.4975 79.7107 44.5703 79.71 44.6438C79.7157 44.7198 79.7055 44.7962 79.68 44.8681C79.6546 44.9399 79.6144 45.0056 79.5621 45.0609C79.5098 45.1162 79.4466 45.1599 79.3765 45.1891C79.3064 45.2184 79.2309 45.2325 79.1551 45.2307H76.8653V47.8716H81.106C81.2609 47.8716 81.4095 47.9335 81.519 48.0435C81.6286 48.1536 81.6901 48.3029 81.6901 48.4585C81.6587 48.5929 81.5812 48.7119 81.4712 48.7945C81.3611 48.8772 81.2256 48.9182 81.0885 48.9104Z" fill="#D2D3D9"/>
<path d="M93.6095 48.2108C93.6495 48.2891 93.6714 48.3753 93.6738 48.4632C93.6809 48.5421 93.6708 48.6216 93.6439 48.696C93.6171 48.7705 93.5743 48.8382 93.5186 48.8942C93.4628 48.9502 93.3955 48.9932 93.3214 49.0201C93.2473 49.0471 93.1681 49.0573 93.0896 49.0501C92.9737 49.0567 92.8586 49.0261 92.761 48.9629C92.6634 48.8996 92.5882 48.8068 92.5464 48.6979L91.7053 46.8493H87.7509L86.9039 48.6979C86.8621 48.8068 86.787 48.8996 86.6893 48.9629C86.5917 49.0261 86.4767 49.0567 86.3607 49.0501C86.2824 49.0563 86.2037 49.0453 86.1301 49.018C86.0564 48.9907 85.9895 48.9477 85.934 48.8919C85.8785 48.8361 85.8357 48.7689 85.8085 48.6949C85.7813 48.6209 85.7704 48.5418 85.7766 48.4632C85.7813 48.3757 85.8032 48.2899 85.8408 48.2108L89.1644 40.7574C89.2075 40.6479 89.2823 40.554 89.3792 40.4878C89.476 40.4216 89.5905 40.3862 89.7076 40.3862C89.8248 40.3862 89.9392 40.4216 90.0361 40.4878C90.133 40.554 90.2078 40.6479 90.2509 40.7574L93.6095 48.2108ZM89.7427 42.1777L88.2065 45.7577H91.2789L89.7427 42.1777Z" fill="#D2D3D9"/>
<path d="M98.5001 48.3226V41.0218C98.4958 40.9392 98.509 40.8567 98.5386 40.7796C98.5683 40.7025 98.6139 40.6325 98.6723 40.5744C98.7308 40.5162 98.8008 40.4711 98.8778 40.442C98.9549 40.4129 99.0371 40.4005 99.1192 40.4055C99.1985 40.4054 99.2769 40.4215 99.3497 40.4528C99.4226 40.4841 99.4883 40.53 99.543 40.5877C99.5976 40.6453 99.64 40.7135 99.6676 40.7881C99.6951 40.8628 99.7073 40.9423 99.7034 41.0218V47.7944H103.722C103.877 47.7944 104.026 47.8562 104.135 47.9663C104.245 48.0764 104.306 48.2256 104.306 48.3813C104.306 48.5369 104.245 48.6862 104.135 48.7963C104.026 48.9063 103.877 48.9682 103.722 48.9682H99.1134C99.0291 48.9728 98.9448 48.9591 98.8663 48.9279C98.7878 48.8967 98.717 48.8488 98.6587 48.7874C98.6004 48.726 98.556 48.6527 98.5286 48.5725C98.5013 48.4922 98.4915 48.407 98.5001 48.3226Z" fill="#D2D3D9"/>
<path d="M113.254 41.6435H110.918V48.4161C110.918 48.5718 110.856 48.721 110.747 48.8311C110.637 48.9412 110.489 49.003 110.334 49.003C110.254 49.0078 110.174 48.9962 110.1 48.9688C110.025 48.9415 109.956 48.8991 109.898 48.8441C109.84 48.7891 109.794 48.7227 109.762 48.6491C109.731 48.5755 109.715 48.4962 109.715 48.4161V41.6435H107.308C107.222 41.6652 107.132 41.6668 107.045 41.6484C106.958 41.6299 106.877 41.5918 106.807 41.5369C106.737 41.482 106.68 41.4118 106.641 41.3316C106.602 41.2514 106.582 41.1634 106.582 41.0742C106.582 40.985 106.602 40.8969 106.641 40.8168C106.68 40.7366 106.737 40.6664 106.807 40.6115C106.877 40.5566 106.958 40.5185 107.045 40.5C107.132 40.4815 107.222 40.4832 107.308 40.5049H113.254C113.341 40.4832 113.43 40.4815 113.517 40.5C113.604 40.5185 113.686 40.5566 113.756 40.6115C113.826 40.6664 113.882 40.7366 113.921 40.8168C113.96 40.8969 113.981 40.985 113.981 41.0742C113.981 41.1634 113.96 41.2514 113.921 41.3316C113.882 41.4118 113.826 41.482 113.756 41.5369C113.686 41.5918 113.604 41.6299 113.517 41.6484C113.43 41.6668 113.341 41.6652 113.254 41.6435Z" fill="#D2D3D9"/>
<path d="M124.766 49.0321C124.611 49.0321 124.463 48.9703 124.353 48.8602C124.244 48.7502 124.182 48.6009 124.182 48.4452V45.1763H119.661V48.4159C119.661 48.5715 119.6 48.7208 119.49 48.8309C119.381 48.9409 119.232 49.0028 119.077 49.0028C118.998 49.0076 118.918 48.996 118.843 48.9686C118.768 48.9413 118.699 48.8988 118.641 48.8438C118.583 48.7889 118.537 48.7225 118.506 48.6489C118.474 48.5753 118.458 48.496 118.458 48.4159V41.0211C118.458 40.86 118.522 40.7055 118.635 40.5916C118.748 40.4777 118.902 40.4137 119.063 40.4137C119.223 40.4137 119.377 40.4777 119.49 40.5916C119.603 40.7055 119.667 40.86 119.667 41.0211V44.0377H124.188V41.0211C124.184 40.9416 124.196 40.8622 124.224 40.7875C124.252 40.7129 124.294 40.6447 124.349 40.587C124.403 40.5294 124.469 40.4835 124.542 40.4522C124.615 40.4209 124.693 40.4048 124.772 40.4049C124.851 40.4048 124.93 40.4209 125.003 40.4522C125.076 40.4835 125.141 40.5294 125.196 40.587C125.251 40.6447 125.293 40.7129 125.321 40.7875C125.348 40.8622 125.36 40.9416 125.356 41.0211V48.4159C125.36 48.4959 125.348 48.5759 125.32 48.6509C125.292 48.7259 125.249 48.7944 125.194 48.8521C125.139 48.9098 125.072 48.9556 124.999 48.9866C124.925 49.0175 124.846 49.033 124.766 49.0321Z" fill="#D2D3D9"/>
<path d="M25.5913 13.3566C20.1883 13.163 14.7619 26.1801 13.1089 30.9632C13.1433 30.9828 13.1813 30.9954 13.2206 31.0001C13.2599 31.0048 13.2998 31.0016 13.3378 30.9907C13.3759 30.9798 13.4114 30.9613 13.4423 30.9364C13.4732 30.9116 13.4989 30.8807 13.5178 30.8458C15.7082 27.3245 20.7199 18.5212 25.4161 18.709C30.2117 18.8792 36.117 33.4926 38.582 39.473C38.5943 39.5111 38.6143 39.5463 38.6407 39.5764C38.6671 39.6064 38.6994 39.6307 38.7355 39.6478C38.7716 39.6648 38.8109 39.6743 38.8508 39.6755C38.8907 39.6767 38.9304 39.6697 38.9675 39.6549C37.3028 32.4773 31.3331 13.562 25.5913 13.3566Z" fill="#D2D3D9"/>
<path d="M25.5916 14.5768C31.3334 14.7822 36.9584 32.8054 38.9678 39.6485C39.0446 39.6252 39.1097 39.5734 39.1498 39.5036C39.19 39.4339 39.2022 39.3513 39.1839 39.2729C37.1395 28.1631 33.0098 9.25958 25.8194 9.00135C19.3942 8.77247 14.5344 24.6477 12.969 30.5752C12.9468 30.6473 12.9504 30.7249 12.9792 30.7946C13.008 30.8643 13.0602 30.9217 13.1267 30.9567C14.9725 26.4612 20.1886 14.3831 25.5916 14.5768Z" fill="#D2D3D9"/>
<path d="M47.2737 49.9657C50.2935 45.4585 42.2153 33.8029 39.1662 30.129C39.1314 30.148 39.1008 30.1738 39.076 30.2048C39.0512 30.2359 39.0329 30.2716 39.022 30.3098C39.0111 30.3481 39.0079 30.3881 39.0126 30.4276C39.0173 30.4671 39.0298 30.5053 39.0494 30.5398C40.8893 34.2783 45.6382 43.1872 43.0155 47.1017C40.3928 51.0162 24.8672 48.4163 18.5121 47.3541C18.4338 47.3365 18.3519 47.3507 18.2841 47.3936C18.2162 47.4365 18.168 47.5045 18.1499 47.583C24.984 49.9951 44.0611 54.7782 47.2737 49.9657Z" fill="#D2D3D9"/>
<path d="M46.408 49.4315C43.1954 54.2205 25.0003 49.4902 18.1487 47.5828C18.131 47.662 18.1426 47.745 18.1813 47.8163C18.22 47.8875 18.2831 47.9422 18.359 47.9702C28.8263 52.0784 46.9804 58.5341 50.9933 52.5713C54.6206 47.2072 43.7444 34.6772 39.5739 30.1934C39.5242 30.136 39.456 30.098 39.3812 30.0862C39.3064 30.0744 39.2298 30.0895 39.165 30.1289C41.9804 34.0904 49.4278 44.9242 46.408 49.4315Z" fill="#D2D3D9"/>
<path d="M5.1241 49.8594C7.39629 54.7893 21.7713 53.6742 26.5142 52.8701C26.5174 52.7902 26.4892 52.7121 26.4357 52.6528C26.3821 52.5936 26.3076 52.5578 26.228 52.5532C22.0925 52.2011 12.0458 51.6729 10.0715 47.3886C8.09723 43.1044 18.3425 31.1085 22.5364 26.1962C22.5925 26.1391 22.6238 26.0622 22.6238 25.982C22.6238 25.9019 22.5925 25.8249 22.5364 25.7678C17.0867 30.1284 2.70588 44.6185 5.1241 49.8594Z" fill="#D2D3D9"/>
<path d="M6.3271 49.1021C3.91472 43.8612 17.361 30.668 22.5245 25.7676C22.4654 25.7135 22.3883 25.6836 22.3084 25.6836C22.2284 25.6836 22.1514 25.7135 22.0923 25.7676C13.1495 32.6048 -1.73947 44.8765 1.28038 51.4203C3.99066 57.2891 20.2698 54.4486 26.2511 53.1809C26.3244 53.1662 26.3904 53.1267 26.4382 53.0691C26.486 53.0114 26.5128 52.939 26.514 52.864C21.6834 53.2337 8.60513 54.0319 6.3271 49.1021Z" fill="#D2D3D9"/>
</g>
</g>
<defs>
<clipPath id="clip0_407_1850">
<rect width="216" height="64" fill="white" transform="translate(0.5)"/>
</clipPath>
<clipPath id="clip1_407_1850">
<rect width="216" height="46" fill="white" transform="translate(0.5 9)"/>
</clipPath>
</defs>
</svg>
