<svg width="56" height="56" viewBox="0 0 56 56" fill="none" xmlns="http://www.w3.org/2000/svg">
<g id="linkedin">
<g id="&#240;&#159;&#166;&#134; icon &#34;LinkedIn In&#34;">
<path id="Vector" d="M24.1338 35H21.2313V25.6529H24.1338V35ZM22.681 24.3779C21.7528 24.3779 21 23.6091 21 22.681C21 22.2352 21.1771 21.8076 21.4923 21.4923C21.8076 21.1771 22.2352 21 22.681 21C23.1268 21 23.5544 21.1771 23.8696 21.4923C24.1848 21.8076 24.3619 22.2352 24.3619 22.681C24.3619 23.6091 23.6088 24.3779 22.681 24.3779ZM34.9972 35H32.1009V30.4499C32.1009 29.3655 32.079 27.9748 30.5918 27.9748C29.0827 27.9748 28.8514 29.153 28.8514 30.3718V35H25.952V25.6529H28.7358V26.9279H28.7764C29.1639 26.1936 30.1105 25.4185 31.5227 25.4185C34.4603 25.4185 35.0003 27.353 35.0003 29.8655V35H34.9972Z" fill="white"/>
</g>
<circle id="Ellipse 6" cx="28" cy="28" r="27.125" stroke="white" stroke-opacity="0.12" stroke-width="1.75"/>
</g>
</svg>
