<svg width="160" height="32" viewBox="0 0 160 32" fill="none" xmlns="http://www.w3.org/2000/svg">
<g id="Logo" clip-path="url(#clip0_407_1378)">
<path id="Vector" d="M72.1624 21.9799C68.981 21.9799 68.1211 20.8625 68.1211 19.0783V18.0438C68.1211 16.197 68.8956 15.1443 71.9591 15.1443H80.1434V14.8998C80.1434 13.4995 79.6128 13.1358 78.2671 13.1358H75.2503V10.9839H78.2793C81.8103 10.9839 83.1967 12.2427 83.1967 15.0412V17.7165C83.1967 20.9029 82.0746 21.9759 78.1573 21.9759L72.1624 21.9799ZM80.1434 17.0113H72.2905C71.5749 17.0113 71.148 17.2538 71.148 18.1267V18.8783C71.148 19.6481 71.6176 19.9108 72.3921 19.9108H78.1085C79.5315 19.9108 80.1414 19.5875 80.1414 17.9448L80.1434 17.0113Z" fill="url(#paint0_linear_407_1378)"/>
<path id="Vector_2" d="M90.7433 21.98C86.641 21.98 85.4375 20.7212 85.4375 17.2316V7.42773H88.4868V10.9779H94.6301C98.7527 10.9779 99.9562 12.2367 99.9562 15.7445V17.2255C99.9562 20.7151 98.7527 21.9719 94.6301 21.9719L90.7433 21.98ZM96.9069 15.8536C96.9069 13.9461 96.4373 13.5804 94.5203 13.5804H88.4787V17.1649C88.4787 18.9693 88.9259 19.4159 90.8449 19.4159H94.504C96.4231 19.4159 96.8927 18.9693 96.8927 17.1447L96.9069 15.8536Z" fill="url(#paint1_linear_407_1378)"/>
<path id="Vector_3" d="M105.194 17.6013V18.0883C105.194 19.4259 105.6 19.6684 107.023 19.6684H110.615V21.9779H107.038C103.527 21.9779 102.159 20.7211 102.159 17.8014V15.2574C102.159 12.0528 103.281 10.9758 107.18 10.9758H112.526C115.689 10.9758 116.568 12.2367 116.568 13.9784V17.6013H105.194ZM113.512 14.235C113.512 13.5056 113.185 13.3217 112.266 13.3217H107.214C105.684 13.3217 105.194 13.4854 105.194 15.0655V15.6535H113.512V14.235Z" fill="url(#paint2_linear_407_1378)"/>
<path id="Vector_4" d="M123.973 21.9781C119.869 21.9781 118.666 20.7213 118.666 17.2317V15.7526C118.666 12.2429 119.869 10.9861 123.973 10.9861H127.667C131.79 10.9861 132.993 12.2429 132.993 15.7708V17.2297C132.993 20.7192 131.79 21.976 127.667 21.976L123.973 21.9781ZM129.952 15.8537C129.952 13.9867 129.464 13.5805 127.26 13.5805H124.382C122.215 13.5805 121.707 13.9846 121.707 15.8537V17.1529C121.707 18.9714 122.215 19.424 124.382 19.424H127.258C129.46 19.424 129.95 18.9755 129.95 17.1529L129.952 15.8537Z" fill="url(#paint3_linear_407_1378)"/>
<path id="Vector_5" d="M135.831 21.9798C135.077 21.9798 134.791 21.7171 134.791 21.0665V19.4035C134.791 18.7731 135.077 18.4902 135.831 18.4902H136.834C137.608 18.4902 137.893 18.7731 137.893 19.4035V21.0665C137.893 21.7171 137.608 21.9798 136.834 21.9798H135.831Z" fill="url(#paint4_linear_407_1378)"/>
<path id="Vector_6" d="M143.569 21.9802C140.389 21.9802 139.527 20.8628 139.527 19.0786V18.044C139.527 16.1972 140.304 15.1445 143.363 15.1445H151.558V14.9C151.558 13.4998 151.029 13.1361 149.681 13.1361H146.65V10.9841H149.671C153.202 10.9841 154.593 12.243 154.593 15.0415V17.7167C154.593 20.9032 153.469 21.9761 149.549 21.9761L143.569 21.9802ZM151.558 17.0115H143.693C142.977 17.0115 142.546 17.254 142.546 18.1269V18.8786C142.546 19.6484 143.016 19.9111 143.792 19.9111H149.509C150.932 19.9111 151.542 19.5878 151.542 17.945L151.558 17.0115Z" fill="url(#paint5_linear_407_1378)"/>
<path id="Vector_7" d="M157.939 10.3433C157.183 10.3433 156.896 10.0584 156.896 9.40984V8.23184C156.896 7.58323 157.183 7.32056 157.939 7.32056H158.937C159.714 7.32056 159.998 7.58323 159.998 8.23184V9.40984C159.998 10.0584 159.714 10.3433 158.937 10.3433H157.939ZM156.896 11.2546H160.002V21.9738H156.896V11.2546Z" fill="url(#paint6_linear_407_1378)"/>
<path id="Vector_8" d="M66.5352 13.7784V17.2275C66.5352 20.7171 65.3317 21.9739 61.1867 21.9739H55.698C51.5937 21.9739 50.3882 20.7171 50.3882 17.2275V12.8853C50.3882 9.39572 51.5916 8.13892 55.696 8.13892H59.3267V10.794H55.8403C53.9802 10.794 53.468 11.3415 53.468 13.0166V17.1063C53.468 18.9248 54.0229 19.3289 55.8403 19.3289H61.0952C62.8313 19.3289 63.4432 18.945 63.4432 16.979V13.7784H66.5352Z" fill="url(#paint7_linear_407_1378)"/>
<path id="Vector_9" opacity="0.2" d="M3.34784 23.7945C4.52893 28.3449 5.59618 29.2016 7.24279 30.5736C5.11033 29.4198 2.81727 26.884 2.1078 23.2691L0.109503 11.1517C-0.242181 7.3328 0.054617 4.87779 2.99819 3.21484C2.02852 4.87779 1.49794 7.40958 1.77848 10.5092C1.79067 10.5172 2.16472 19.2441 3.34784 23.7945Z" fill="url(#paint8_linear_407_1378)"/>
<path id="Vector_10" opacity="0.5" d="M10.9948 31.7838C5.811 30.3088 3.92044 22.9155 3.8066 19.5007L3.19674 9.71901C3.00769 3.87144 4.61974 1.10526 9.96819 0.212158C6.78067 1.65081 5.76831 4.47761 5.92484 9.30479L6.36393 22.9538C6.52656 27.7952 7.71985 30.5492 10.9948 31.7838Z" fill="url(#paint9_linear_407_1378)"/>
<path id="Vector_11" d="M39.8639 15.6132V22.5095C39.8639 29.4886 37.455 32.0062 29.1671 32.0062H18.1896C9.98503 32.0062 7.57812 29.4926 7.57812 22.5095V9.49284C7.57812 2.51374 9.98706 -0.00390625 18.1896 -0.00390625H25.4571V5.31225H17.6408C13.9247 5.31225 12.9022 6.40741 12.9022 9.77572V22.265C12.9022 25.9202 14.006 26.7284 17.6408 26.7284H29.7464C33.2165 26.7284 34.4403 25.9606 34.4403 22.0225V15.6132H39.8639Z" fill="url(#paint10_linear_407_1378)"/>
<path id="Vector_12" d="M28.932 16.1101C28.8265 16.4368 28.6724 16.7461 28.4747 17.0274C28.38 17.1548 28.2768 17.2756 28.1657 17.3891C26.7752 18.8412 25.3806 20.2947 23.982 21.7495C23.9628 21.7714 23.9384 21.7881 23.9109 21.798C23.8847 21.8099 23.8563 21.8161 23.8275 21.8162C23.7981 21.816 23.7691 21.8098 23.7422 21.798C23.7153 21.7881 23.6914 21.7714 23.6731 21.7495L19.4366 17.5548C19.1007 17.2381 18.8252 16.8637 18.6234 16.4495C18.5787 16.3505 18.536 16.2475 18.5015 16.1505H19.8005L20.9653 14.6855L22.6119 17.3123L23.1709 16.1464H24.0979L25.1896 14.6936L26.765 17.3204L27.261 16.1262L28.932 16.1101Z" fill="#37A2ED"/>
<path id="Vector_13" d="M29.1095 14.7506V15.2173C29.0851 15.3729 29.0648 15.5305 29.0383 15.6841C29.0118 15.8284 28.9758 15.9708 28.9306 16.1104H27.2657L26.7697 17.3228L25.1942 14.696L24.0965 16.1468H23.1654L22.6064 17.3127L20.9598 14.6859L19.7949 16.1508H18.4959C18.31 15.641 18.2406 15.0964 18.2927 14.5566C18.3451 13.8879 18.5995 13.2505 19.0225 12.728C19.2462 12.4346 19.5309 12.1926 19.8571 12.0183C20.1833 11.8439 20.5434 11.7414 20.913 11.7177C21.5021 11.6972 22.079 11.8872 22.5393 12.2531C22.9376 12.5474 23.2945 12.8933 23.6004 13.2816L23.6838 13.3846L23.7712 13.2695C24.1419 12.7647 24.6106 12.3387 25.1495 12.0167C25.989 11.5479 26.8246 11.6126 27.6255 12.1238C28.4264 12.635 28.896 13.4614 29.0485 14.4333L29.1095 14.7506Z" fill="#82C4F4"/>
<path id="Vector_14" d="M26.7711 17.6883C26.7052 17.6883 26.6405 17.6714 26.5831 17.6391C26.5258 17.6069 26.4778 17.5605 26.4438 17.5044L25.1611 15.3707L24.4089 16.381C24.3733 16.428 24.3273 16.4661 24.2744 16.4924C24.2215 16.5187 24.1631 16.5325 24.104 16.5325H23.4128L22.9574 17.4822C22.9279 17.5431 22.8825 17.595 22.826 17.6325C22.7694 17.67 22.7038 17.6918 22.6359 17.6955C22.568 17.6992 22.5003 17.6848 22.44 17.6536C22.3796 17.6225 22.3288 17.5759 22.2927 17.5186L20.9307 15.3566L20.1013 16.4012C20.0658 16.4462 20.0205 16.4826 19.9687 16.5075C19.9168 16.5323 19.86 16.5451 19.8025 16.5447H17.9363C17.8355 16.5447 17.7388 16.5049 17.6675 16.434C17.5962 16.3631 17.5562 16.267 17.5562 16.1668C17.5562 16.0666 17.5962 15.9705 17.6675 15.8996C17.7388 15.8288 17.8355 15.789 17.9363 15.789H19.6256L20.6746 14.4675C20.7122 14.42 20.7608 14.3822 20.8162 14.3573C20.8716 14.3323 20.9322 14.321 20.993 14.3241C21.0537 14.3273 21.1128 14.3449 21.1653 14.3755C21.2178 14.4061 21.2621 14.4487 21.2946 14.4998L22.5753 16.5346L22.8355 15.991C22.8666 15.9267 22.9153 15.8725 22.9761 15.8346C23.0369 15.7967 23.1073 15.7767 23.179 15.7769H23.919L24.8968 14.4756C24.934 14.4259 24.983 14.3861 25.0393 14.3596C25.0957 14.3332 25.1578 14.3209 25.22 14.3239C25.2823 14.3269 25.3428 14.3451 25.3964 14.3768C25.4499 14.4085 25.4947 14.4529 25.527 14.5059L26.7142 16.478L26.9175 15.9749C26.9461 15.9055 26.9948 15.8462 27.0574 15.8045C27.12 15.7628 27.1937 15.7405 27.2691 15.7405H29.1109C29.2117 15.7405 29.3084 15.7803 29.3797 15.8512C29.451 15.922 29.491 16.0181 29.491 16.1183C29.491 16.2185 29.451 16.3146 29.3797 16.3855C29.3084 16.4564 29.2117 16.4962 29.1109 16.4962H27.5232L27.1167 17.462C27.0897 17.5268 27.0452 17.583 26.9882 17.6243C26.9312 17.6657 26.8638 17.6906 26.7934 17.6964L26.7711 17.6883Z" fill="url(#paint11_linear_407_1378)"/>
</g>
<defs>
<linearGradient id="paint0_linear_407_1378" x1="66.9361" y1="11.8427" x2="77.477" y2="26.1635" gradientUnits="userSpaceOnUse">
<stop stop-color="#05AFF2"/>
<stop offset="1" stop-color="#044BD9"/>
</linearGradient>
<linearGradient id="paint1_linear_407_1378" x1="84.2963" y1="8.56428" x2="98.9054" y2="23.0078" gradientUnits="userSpaceOnUse">
<stop stop-color="#05AFF2"/>
<stop offset="1" stop-color="#044BD9"/>
</linearGradient>
<linearGradient id="paint2_linear_407_1378" x1="101.026" y1="11.8351" x2="111.707" y2="25.6967" gradientUnits="userSpaceOnUse">
<stop stop-color="#05AFF2"/>
<stop offset="1" stop-color="#044BD9"/>
</linearGradient>
<linearGradient id="paint3_linear_407_1378" x1="117.539" y1="11.8446" x2="128.223" y2="25.6445" gradientUnits="userSpaceOnUse">
<stop stop-color="#05AFF2"/>
<stop offset="1" stop-color="#044BD9"/>
</linearGradient>
<linearGradient id="paint4_linear_407_1378" x1="134.547" y1="18.7628" x2="138.022" y2="21.8244" gradientUnits="userSpaceOnUse">
<stop stop-color="#05AFF2"/>
<stop offset="1" stop-color="#044BD9"/>
</linearGradient>
<linearGradient id="paint5_linear_407_1378" x1="138.343" y1="11.8429" x2="148.886" y2="26.157" gradientUnits="userSpaceOnUse">
<stop stop-color="#05AFF2"/>
<stop offset="1" stop-color="#044BD9"/>
</linearGradient>
<linearGradient id="paint6_linear_407_1378" x1="156.652" y1="8.46499" x2="162.571" y2="9.70845" gradientUnits="userSpaceOnUse">
<stop stop-color="#05AFF2"/>
<stop offset="1" stop-color="#044BD9"/>
</linearGradient>
<linearGradient id="paint7_linear_407_1378" x1="49.119" y1="9.21944" x2="62.8633" y2="25.1155" gradientUnits="userSpaceOnUse">
<stop stop-color="#05AFF2"/>
<stop offset="1" stop-color="#044BD9"/>
</linearGradient>
<linearGradient id="paint8_linear_407_1378" x1="-0.577717" y1="5.35159" x2="12.9186" y2="8.89602" gradientUnits="userSpaceOnUse">
<stop stop-color="#05AFF2"/>
<stop offset="1" stop-color="#044BD9"/>
</linearGradient>
<linearGradient id="paint9_linear_407_1378" x1="2.56805" y1="2.67793" x2="17.2318" y2="6.27376" gradientUnits="userSpaceOnUse">
<stop stop-color="#05AFF2"/>
<stop offset="1" stop-color="#044BD9"/>
</linearGradient>
<linearGradient id="paint10_linear_407_1378" x1="5.04043" y1="2.49611" x2="37.1777" y2="34.617" gradientUnits="userSpaceOnUse">
<stop stop-color="#05AFF2"/>
<stop offset="1" stop-color="#044BD9"/>
</linearGradient>
<linearGradient id="paint11_linear_407_1378" x1="16.6181" y1="14.5869" x2="18.4043" y2="20.8501" gradientUnits="userSpaceOnUse">
<stop stop-color="#05AFF2"/>
<stop offset="1" stop-color="#044BD9"/>
</linearGradient>
<clipPath id="clip0_407_1378">
<rect width="160" height="32" fill="white"/>
</clipPath>
</defs>
</svg>
