<svg width="111" height="22" viewBox="0 0 111 22" fill="none" xmlns="http://www.w3.org/2000/svg">
<g id="White_Logotype_Horizontal_with_BG" clip-path="url(#clip0_433_3642)">
<path id="Vector" d="M49.8506 15.111C47.6529 15.111 47.0588 14.3428 47.0588 13.1162V12.405C47.0588 11.1353 47.5939 10.4115 49.7102 10.4115H55.364V10.2434C55.364 9.28076 54.9975 9.03072 54.0678 9.03072H51.9838V7.55127H54.0763C56.5156 7.55127 57.4733 8.41671 57.4733 10.3407V12.1799C57.4733 14.3706 56.6981 15.1083 53.992 15.1083L49.8506 15.111ZM55.364 11.6951H49.9391C49.4448 11.6951 49.1499 11.8618 49.1499 12.4619V12.9787C49.1499 13.508 49.4743 13.6885 50.0093 13.6885H53.9583C54.9413 13.6885 55.3626 13.4663 55.3626 12.3369L55.364 11.6951Z" fill="white"/>
<path id="Vector_2" d="M62.6863 15.1111C59.8524 15.1111 59.021 14.2457 59.021 11.8466V5.10645H61.1275V7.54719H65.3714C68.2193 7.54719 69.0507 8.41263 69.0507 10.8242V11.8424C69.0507 14.2415 68.2193 15.1056 65.3714 15.1056L62.6863 15.1111ZM66.9442 10.8992C66.9442 9.58785 66.6198 9.33641 65.2955 9.33641H61.1219V11.8008C61.1219 13.0413 61.4308 13.3483 62.7565 13.3483H65.2843C66.61 13.3483 66.9344 13.0413 66.9344 11.7869L66.9442 10.8992Z" fill="white"/>
<path id="Vector_3" d="M72.6697 12.1009V12.4357C72.6697 13.3553 72.9505 13.522 73.9335 13.522H76.415V15.1098H73.9434C71.5181 15.1098 70.573 14.2458 70.573 12.2384V10.4895C70.573 8.28632 71.3482 7.5459 74.0417 7.5459H77.7351C79.9202 7.5459 80.5269 8.41273 80.5269 9.61018V12.1009H72.6697ZM78.4162 9.7866C78.4162 9.28512 78.1901 9.1587 77.5553 9.1587H74.0656C73.0081 9.1587 72.6697 9.27122 72.6697 10.3575V10.7618H78.4162V9.7866Z" fill="white"/>
<path id="Vector_4" d="M85.6433 15.1097C82.8079 15.1097 81.9766 14.2457 81.9766 11.8466V10.8297C81.9766 8.41679 82.8079 7.55273 85.6433 7.55273H88.1949C91.0429 7.55273 91.8742 8.41679 91.8742 10.8422V11.8452C91.8742 14.2443 91.0429 15.1083 88.1949 15.1083L85.6433 15.1097ZM89.7734 10.8992C89.7734 9.61562 89.4363 9.33641 87.914 9.33641H85.9255C84.4285 9.33641 84.0774 9.61424 84.0774 10.8992V11.7924C84.0774 13.0427 84.4285 13.3538 85.9255 13.3538H87.9126C89.4335 13.3538 89.772 13.0454 89.772 11.7924L89.7734 10.8992Z" fill="white"/>
<path id="Vector_5" d="M93.8345 15.111C93.3135 15.111 93.1155 14.9304 93.1155 14.4831V13.3398C93.1155 12.9064 93.3135 12.7119 93.8345 12.7119H94.5268C95.0619 12.7119 95.2585 12.9064 95.2585 13.3398V14.4831C95.2585 14.9304 95.0619 15.111 94.5268 15.111H93.8345Z" fill="white"/>
<path id="Vector_6" d="M99.179 15.1113C96.9826 15.1113 96.3872 14.3431 96.3872 13.1165V12.4052C96.3872 11.1355 96.9237 10.4118 99.0372 10.4118H104.698V10.2437C104.698 9.281 104.333 9.03096 103.402 9.03096H101.308V7.55151H103.395C105.834 7.55151 106.795 8.41695 106.795 10.3409V12.1802C106.795 14.3709 106.018 15.1085 103.311 15.1085L99.179 15.1113ZM104.698 11.6954H99.2647C98.7703 11.6954 98.4726 11.8621 98.4726 12.4622V12.9789C98.4726 13.5082 98.797 13.6888 99.3335 13.6888H103.282C104.265 13.6888 104.687 13.4665 104.687 12.3371L104.698 11.6954Z" fill="white"/>
<path id="Vector_7" d="M109.106 7.11113C108.584 7.11113 108.386 6.91526 108.386 6.46934V5.65946C108.386 5.21355 108.584 5.03296 109.106 5.03296H109.796C110.332 5.03296 110.529 5.21355 110.529 5.65946V6.46934C110.529 6.91526 110.332 7.11113 109.796 7.11113H109.106ZM108.386 7.73764H110.532V15.1071H108.386V7.73764Z" fill="white"/>
<path id="Vector_8" d="M45.9641 9.47283V11.8441C45.9641 14.2432 45.1328 15.1072 42.2694 15.1072H38.4777C35.6423 15.1072 34.8096 14.2432 34.8096 11.8441V8.85882C34.8096 6.45975 35.6409 5.5957 38.4763 5.5957H40.9844V7.42105H38.576C37.291 7.42105 36.9371 7.79751 36.9371 8.94912V11.7608C36.9371 13.011 37.3205 13.2888 38.576 13.2888H42.2062C43.4055 13.2888 43.8282 13.0249 43.8282 11.6732V9.47283H45.9641Z" fill="white"/>
<path id="Vector_9" opacity="0.2" d="M2.31276 16.3587C3.12868 19.4871 3.86595 20.0761 5.00345 21.0193C3.53031 20.2261 1.94623 18.4827 1.45612 15.9975L0.0756718 7.66679C-0.167277 5.0413 0.0377561 3.35348 2.07122 2.21021C1.40136 3.35348 1.03483 5.09409 1.22862 7.22505C1.23705 7.2306 1.49544 13.2304 2.31276 16.3587Z" fill="white"/>
<path id="Vector_10" opacity="0.5" d="M7.59582 21.8513C4.01479 20.8372 2.70877 15.7543 2.63012 13.4066L2.20883 6.68171C2.07822 2.66151 3.19185 0.759757 6.88663 0.145752C4.68465 1.13483 3.9853 3.07825 4.09343 6.39694L4.39677 15.7807C4.50911 19.1091 5.33345 21.0025 7.59582 21.8513Z" fill="white"/>
<path id="Vector_11" d="M27.5391 10.7341V15.4752C27.5391 20.2734 25.875 22.0043 20.1495 22.0043H12.5662C6.89832 22.0043 5.2356 20.2762 5.2356 15.4752V6.52633C5.2356 1.7282 6.89972 -0.00268555 12.5662 -0.00268555H17.5866V3.65217H12.187C9.6199 3.65217 8.91352 4.40509 8.91352 6.72081V15.3072C8.91352 17.8201 9.67607 18.3758 12.187 18.3758H20.5498C22.947 18.3758 23.7924 17.8479 23.7924 15.1405V10.7341H27.5391Z" fill="white"/>
<path id="Vector_12" d="M19.9868 11.0755C19.914 11.3002 19.8075 11.5128 19.6709 11.7062C19.6055 11.7938 19.5342 11.8769 19.4574 11.9549C18.4969 12.9532 17.5335 13.9525 16.5673 14.9527C16.554 14.9677 16.5371 14.9792 16.5182 14.986C16.5001 14.9942 16.4805 14.9984 16.4606 14.9985C16.4403 14.9984 16.4202 14.9941 16.4016 14.986C16.383 14.9792 16.3666 14.9677 16.3539 14.9527L13.4272 12.0688C13.1952 11.8511 13.0049 11.5936 12.8655 11.3089C12.8346 11.2408 12.8051 11.17 12.7812 11.1033H13.6786L14.4833 10.0962L15.6208 11.9021L16.007 11.1005H16.6474L17.4015 10.1017L18.4898 11.9077L18.8325 11.0867L19.9868 11.0755Z" fill="#37A2ED"/>
<path id="Vector_13" d="M20.1102 10.141V10.4619C20.0934 10.5689 20.0793 10.6772 20.0611 10.7828C20.0427 10.882 20.0179 10.9799 19.9866 11.0759H18.8365L18.4938 11.9094L17.4055 10.1035L16.6472 11.1009H16.004L15.6178 11.9024L14.4803 10.0965L13.6756 11.1037H12.7782C12.6498 10.7532 12.6018 10.3788 12.6378 10.0076C12.674 9.54792 12.8498 9.10973 13.142 8.75046C13.2966 8.54879 13.4932 8.38239 13.7185 8.26254C13.9439 8.1427 14.1927 8.07221 14.448 8.05588C14.8549 8.04182 15.2535 8.17242 15.5714 8.42401C15.8466 8.6263 16.0931 8.8641 16.3045 9.13109L16.3621 9.20193L16.4225 9.12275C16.6786 8.7757 17.0023 8.48285 17.3746 8.26148C17.9546 7.93919 18.5318 7.98365 19.0851 8.3351C19.6384 8.68656 19.9628 9.25472 20.0681 9.9229L20.1102 10.141Z" fill="#82C4F4"/>
<path id="Vector_14" d="M18.4937 12.1605C18.4482 12.1605 18.4035 12.1488 18.3639 12.1267C18.3243 12.1045 18.2911 12.0726 18.2676 12.0341L17.3815 10.5671L16.8619 11.2617C16.8373 11.294 16.8055 11.3202 16.769 11.3383C16.7324 11.3564 16.6921 11.3658 16.6513 11.3659H16.1738L15.8592 12.0188C15.8388 12.0607 15.8075 12.0963 15.7684 12.1221C15.7293 12.1479 15.684 12.1629 15.6371 12.1654C15.5902 12.168 15.5434 12.158 15.5017 12.1366C15.4601 12.1153 15.4249 12.0832 15.4 12.0438L14.4591 10.5574L13.8861 11.2756C13.8617 11.3066 13.8303 11.3316 13.7945 11.3487C13.7587 11.3658 13.7195 11.3745 13.6797 11.3742H12.3905C12.3209 11.3742 12.2541 11.3469 12.2048 11.2981C12.1556 11.2494 12.1279 11.1834 12.1279 11.1145C12.1279 11.0456 12.1556 10.9795 12.2048 10.9308C12.2541 10.8821 12.3209 10.8547 12.3905 10.8547H13.5575L14.2822 9.94618C14.3082 9.91354 14.3417 9.88755 14.38 9.8704C14.4183 9.85324 14.4602 9.84543 14.5021 9.84761C14.5441 9.84978 14.5849 9.86189 14.6212 9.88291C14.6574 9.90393 14.6881 9.93326 14.7105 9.96841L15.5952 11.3673L15.775 10.9936C15.7964 10.9494 15.8301 10.9121 15.8721 10.8861C15.9141 10.86 15.9627 10.8462 16.0123 10.8464H16.5235L17.1989 9.95174C17.2247 9.91759 17.2585 9.89021 17.2974 9.87203C17.3364 9.85385 17.3792 9.84541 17.4222 9.84747C17.4652 9.84953 17.5071 9.86202 17.5441 9.88383C17.581 9.90565 17.612 9.93613 17.6343 9.97258L18.4544 11.3284L18.5948 10.9825C18.6146 10.9348 18.6483 10.8941 18.6915 10.8654C18.7348 10.8367 18.7857 10.8213 18.8378 10.8213H20.1101C20.1798 10.8213 20.2466 10.8487 20.2958 10.8974C20.3451 10.9462 20.3727 11.0122 20.3727 11.0811C20.3727 11.15 20.3451 11.2161 20.2958 11.2648C20.2466 11.3135 20.1798 11.3409 20.1101 11.3409H19.0133L18.7325 12.0049C18.7138 12.0495 18.6831 12.0881 18.6437 12.1165C18.6043 12.1449 18.5578 12.1621 18.5092 12.1661L18.4937 12.1605Z" fill="white"/>
</g>
<defs>
<clipPath id="clip0_433_3642">
<rect width="110.53" height="22" fill="white"/>
</clipPath>
</defs>
</svg>
